<svg id="Layer_1" data-name="Layer 1" xmlns="http://www.w3.org/2000/svg" xmlns:xlink="http://www.w3.org/2000/svg" viewBox="0 0 1904.743 1103.299"><defs><style>.cls-1{fill:none;}.cls-2{isolation:isolate;}.cls-3{clip-path:url(#clip-path);}.cls-4{fill:#62ff35;}.cls-5{fill:#fff;}.cls-6{clip-path:url(#clip-path-2);}.cls-7{clip-path:url(#clip-path-3);}.cls-8{clip-path:url(#clip-path-4);}.cls-9{clip-path:url(#clip-path-5);}.cls-10{clip-path:url(#clip-path-6);}.cls-11{clip-path:url(#clip-path-7);}.cls-12{clip-path:url(#clip-path-8);}.cls-13{clip-path:url(#clip-path-9);}.cls-14{clip-path:url(#clip-path-10);}.cls-15{clip-path:url(#clip-path-11);}.cls-16{clip-path:url(#clip-path-12);}.cls-17{clip-path:url(#clip-path-13);}.cls-18{clip-path:url(#clip-path-14);}.cls-19{clip-path:url(#clip-path-15);}.cls-20{clip-path:url(#clip-path-16);}.cls-21{clip-path:url(#clip-path-17);}.cls-22{clip-path:url(#clip-path-18);}.cls-23{clip-path:url(#clip-path-19);}.cls-24{clip-path:url(#clip-path-20);}.cls-25{clip-path:url(#clip-path-21);}.cls-26{clip-path:url(#clip-path-22);}.cls-27{clip-path:url(#clip-path-23);}.cls-28{clip-path:url(#clip-path-24);}.cls-29{clip-path:url(#clip-path-25);}</style><clipPath id="clip-path" transform="translate(-7.63 -408.352)"><polygon class="cls-1" points="5.867 961.086 958.749 407.331 1914.13 958.92 961.248 1512.675 5.867 961.086"/></clipPath><clipPath id="clip-path-2" transform="translate(-7.63 -408.352)"><path class="cls-1" d="M607.406,936.958l-71.991-50.515c44.824-15.57,68.535-48.836,68.576-96.221l71.991,50.516C675.941,888.123,652.231,921.389,607.406,936.958Z"/></clipPath><clipPath id="clip-path-3" transform="translate(-7.63 -408.352)"><path class="cls-1" d="M554.886,831.639a38.3,38.3,0,0,0,5.047-12.129l71.991,50.515a38.3,38.3,0,0,1-5.047,12.13Z"/></clipPath><clipPath id="clip-path-4" transform="translate(-7.63 -408.352)"><path class="cls-1" d="M554.886,831.639q18.006,12.647,36.018,25.284l9.419,6.609,9.247,6.487,17.307,12.136a31.9,31.9,0,0,1-7.994,8.391l-71.955-50.49,71.955,50.49a43.238,43.238,0,0,1-11.442,5.819L535.45,845.849C544.3,842.778,550.649,838.131,554.886,831.639Z"/></clipPath><clipPath id="clip-path-5" transform="translate(-7.63 -408.352)"><path class="cls-1" d="M607.443,892.019,535.452,841.5c7.721-2.683,12.926-6.4,16.386-11.71l71.991,50.516C620.369,885.62,615.164,889.337,607.443,892.019Z"/></clipPath><clipPath id="clip-path-6" transform="translate(-7.63 -408.352)"><path class="cls-1" d="M561.605,803.6c22.392,15.734,49.3,34.618,71.991,50.516a68.58,68.58,0,0,1-1.672,15.909L559.933,819.51A68.7,68.7,0,0,0,561.605,803.6Z"/></clipPath><clipPath id="clip-path-7" transform="translate(-7.63 -408.352)"><path class="cls-1" d="M623.829,880.31l-71.991-50.516c3.812-5.842,5.672-13.95,5.681-24.781l71.991,50.516C629.5,866.36,627.641,874.468,623.829,880.31Z"/></clipPath><clipPath id="clip-path-8" transform="translate(-7.63 -408.352)"><path class="cls-1" d="M587.49,716.313l71.991,50.515c11.108,7.8,16.543,23.773,16.526,48.3l-71.991-50.516C604.033,740.085,598.6,724.107,587.49,716.313Z"/></clipPath><clipPath id="clip-path-9" transform="translate(-7.63 -408.352)"><path class="cls-1" d="M554.076,747.335a13.577,13.577,0,0,0-1.081-.846l71.991,50.516a13.577,13.577,0,0,1,1.081.846L554.12,747.368l71.955,50.49c2.58,2.244,4.47,5.657,5.713,10.409l-71.955-50.491,71.955,50.491c1.244,4.751,1.841,10.84,1.834,18.437L561.63,776.188C561.644,760.987,559.24,751.821,554.076,747.335Z"/></clipPath><clipPath id="clip-path-10" transform="translate(-7.63 -408.352)"><path class="cls-1" d="M550.135,750.6l71.991,50.516a10.614,10.614,0,0,1,.861.673c4.479,3.883,6.555,12.252,6.549,26.331L557.545,777.6c.006-14.079-2.07-22.448-6.55-26.33A10.441,10.441,0,0,0,550.135,750.6Z"/></clipPath><clipPath id="clip-path-11" transform="translate(-7.63 -408.352)"><path class="cls-1" d="M552.989,746.485,624.98,797c-3.757-2.637-8.768-3.216-15.648-1.754a65.146,65.146,0,0,0-7.718,2.209l-71.991-50.515a64.715,64.715,0,0,1,7.718-2.209C544.221,743.269,549.232,743.849,552.989,746.485Z"/></clipPath><clipPath id="clip-path-12" transform="translate(-7.63 -408.352)"><path class="cls-1" d="M626.075,797.858l-71.955-50.49,71.947,50.483Z"/></clipPath><clipPath id="clip-path-13" transform="translate(-7.63 -408.352)"><path class="cls-1" d="M590.482,712.219l71.991,50.515a33.424,33.424,0,0,0-14.23-5.529l-71.992-50.516A33.416,33.416,0,0,1,590.482,712.219Z"/></clipPath><clipPath id="clip-path-14" transform="translate(-7.63 -408.352)"><path class="cls-1" d="M587.49,716.313l71.991,50.516a32.335,32.335,0,0,0-16.761-5.5l-71.991-50.515A32.337,32.337,0,0,1,587.49,716.313Z"/></clipPath><clipPath id="clip-path-15" transform="translate(-7.63 -408.352)"><path class="cls-1" d="M642.6,757.379l-71.991-50.516c19.667-16.649,28.845-39.334,28.874-71.409l71.991,50.516C671.443,718.044,662.265,740.73,642.6,757.379Z"/></clipPath><clipPath id="clip-path-16" transform="translate(-7.63 -408.352)"><path class="cls-1" d="M527.128,707.232c20.417-7.092,29.933-21.647,29.955-45.817l71.991,50.516a67.921,67.921,0,0,1-1.824,16.381l-71.955-50.491,71.955,50.491a41.965,41.965,0,0,1-5.512,12.943l-71.955-50.49,71.955,50.49A37.067,37.067,0,0,1,612.4,751L540.45,700.51,612.4,751a50.614,50.614,0,0,1-13.285,6.748Z"/></clipPath><clipPath id="clip-path-17" transform="translate(-7.63 -408.352)"><path class="cls-1" d="M599.122,753.4l-71.991-50.516c18.11-6.294,25.848-18.271,25.867-40.058l71.991,50.516C624.97,735.131,617.233,747.107,599.122,753.4Z"/></clipPath><clipPath id="clip-path-18" transform="translate(-7.63 -408.352)"><path class="cls-1" d="M583.383,576.6l71.991,50.516c.125.087.249.176.372.265,10.611,7.706,15.752,23.207,15.732,47.361l-71.991-50.516c.02-24.153-5.122-39.655-15.732-47.36Q583.57,576.727,583.383,576.6Z"/></clipPath><clipPath id="clip-path-19" transform="translate(-7.63 -408.352)"><path class="cls-1" d="M551.04,620.064a12.286,12.286,0,0,0-1.732-1.478L621.3,669.1a12.345,12.345,0,0,1,1.732,1.477,19.511,19.511,0,0,1,4.568,9.042l-71.954-50.49,71.954,50.49a61.012,61.012,0,0,1,1.494,14.782L557.1,643.887C557.107,632.039,555.129,624.242,551.04,620.064Z"/></clipPath><clipPath id="clip-path-20" transform="translate(-7.63 -408.352)"><path class="cls-1" d="M546.479,622.712l71.991,50.516a9.477,9.477,0,0,1,1.334,1.137c3.509,3.591,5.206,10.613,5.2,21.46l-71.991-50.516c.011-10.847-1.686-17.868-5.2-21.46A9.477,9.477,0,0,0,546.479,622.712Z"/></clipPath><clipPath id="clip-path-21" transform="translate(-7.63 -408.352)"><path class="cls-1" d="M576.916,573.227a28.16,28.16,0,0,1,6.46,3.364l71.991,50.516a28.2,28.2,0,0,0-6.46-3.365Z"/></clipPath><clipPath id="clip-path-22" transform="translate(-7.63 -408.352)"><path class="cls-1" d="M568.785,571.338a35.041,35.041,0,0,1,8.131,1.889l71.991,50.515a35.143,35.143,0,0,0-8.131-1.889Z"/></clipPath><clipPath id="clip-path-23" transform="translate(-7.63 -408.352)"><path class="cls-1" d="M549.308,618.586,621.3,669.1c-3.257-2.286-7.554-2.845-13-1.686a40.606,40.606,0,0,0-4.879,1.386l-71.991-50.516A40.606,40.606,0,0,1,536.3,616.9C541.754,615.741,546.051,616.3,549.308,618.586Z"/></clipPath><clipPath id="clip-path-24" transform="translate(-7.63 -408.352)"><path class="cls-1" d="M548.454,572.774a63.49,63.49,0,0,1,20.331-1.436l71.991,50.515a63.523,63.523,0,0,0-20.331,1.437,131.405,131.405,0,0,0-15.728,4.484q-35.9-25.2-71.808-50.388l-.183-.128A131.539,131.539,0,0,1,548.454,572.774Z"/></clipPath><clipPath id="clip-path-25" transform="translate(-7.63 -408.352)"><path class="cls-1" d="M586.243,572.493l71.991,50.516c-8.883-6.234-21.168-7.634-37.284-4.209a136.249,136.249,0,0,0-16.222,4.618L532.737,572.9a136.045,136.045,0,0,1,16.222-4.617C565.075,564.859,577.36,566.259,586.243,572.493Z"/></clipPath></defs><g class="cls-2"><g class="cls-3"><polyline class="cls-4" points="1904.725 549.544 952.894 0.004 951.137 1.025 952.912 2.05 951.149 3.074 1083.579 79.533 1085.343 78.508 1088.886 80.554 1087.123 81.579 1219.553 158.038 1221.317 157.013 1224.86 159.059 1223.097 160.084 1355.527 236.542 1357.291 235.518 1360.841 237.567 1359.077 238.592 1491.508 315.051 1493.271 314.026 1496.815 316.072 1495.051 317.097 1627.482 393.556 1629.245 392.531 1632.795 394.58 1631.032 395.605 1763.456 472.06 1765.219 471.035 1768.769 473.085 1767.006 474.11 1899.436 550.569 1901.2 549.544 1902.968 550.565 1904.725 549.544"/><path class="cls-4" d="M281,958.729,148.567,882.27l-3.527,2.05,132.43,76.458L281,958.729m135.974,78.5-132.43-76.459-3.527,2.049,132.43,76.459,3.527-2.049m135.974,78.5-132.43-76.459-3.527,2.05,132.43,76.459,3.527-2.05m135.981,78.508L556.5,1117.788l-3.527,2.049L685.4,1196.3l3.527-2.05m135.974,78.5-132.431-76.459-3.527,2.05L821.373,1274.8l3.527-2.05m135.974,78.505L828.45,1274.8l-3.527,2.049,132.424,76.455,3.527-2.049m135.98,78.508-132.43-76.459-3.527,2.05,132.43,76.459,3.527-2.05" transform="translate(-7.63 -408.352)"/><path class="cls-4" d="M416.62,879.913,284.19,803.454l-3.527,2.05,132.43,76.459,3.527-2.05m135.974,78.505-132.43-76.459-3.527,2.05,132.431,76.458,3.526-2.049m135.974,78.505-132.43-76.459-3.527,2.049,132.431,76.459,3.526-2.049m135.981,78.508-132.431-76.459-3.527,2.05,132.431,76.458,3.527-2.049m135.974,78.5-132.431-76.459-3.527,2.049L957,1195.985l3.527-2.049m135.974,78.5-132.424-76.455-3.527,2.05,132.424,76.455,3.527-2.05m135.98,78.509-132.43-76.459-3.527,2.049L1228.951,1353l3.526-2.049" transform="translate(-7.63 -408.352)"/><path class="cls-4" d="M552.243,801.1l-132.43-76.459-3.527,2.049,132.431,76.459,3.526-2.049m135.974,78.5-132.43-76.458-3.527,2.049,132.431,76.459,3.526-2.05m135.975,78.505L691.761,881.648l-3.527,2.05,132.431,76.459,3.527-2.05m135.98,78.508L827.741,960.157l-3.526,2.049,132.43,76.459,3.527-2.05m135.974,78.5-132.431-76.459-3.526,2.05,132.43,76.459,3.527-2.05m135.974,78.505L1099.7,1117.17l-3.527,2.049,132.424,76.455,3.527-2.049m135.981,78.508-132.431-76.459-3.527,2.05,132.431,76.459,3.527-2.05" transform="translate(-7.63 -408.352)"/><path class="cls-4" d="M687.867,722.282,555.436,645.823l-3.527,2.05L684.34,724.332l3.527-2.05m135.974,78.505L691.41,724.328l-3.527,2.05,132.431,76.458,3.527-2.049m135.974,78.5L827.384,802.833l-3.527,2.049,132.431,76.459,3.527-2.05M1095.8,957.8l-132.43-76.459-3.527,2.05,132.43,76.458,3.527-2.049m135.974,78.505-132.43-76.459-3.527,2.049,132.43,76.459,3.527-2.049m135.974,78.5-132.424-76.455-3.527,2.05,132.424,76.455,3.527-2.05m135.981,78.509-132.431-76.459-3.527,2.049,132.431,76.459,3.527-2.049" transform="translate(-7.63 -408.352)"/><path class="cls-4" d="M823.49,643.467,691.059,567.008l-3.527,2.049,132.431,76.459,3.527-2.049m135.974,78.5L827.033,645.512l-3.527,2.05,132.431,76.459,3.527-2.05m135.974,78.505L963.007,724.017l-3.527,2.05,132.431,76.458,3.527-2.049m135.98,78.508-132.43-76.459-3.527,2.05,132.43,76.459,3.527-2.05m135.974,78.505-132.43-76.459-3.527,2.05,132.431,76.459,3.526-2.05m135.974,78.5-132.424-76.456-3.527,2.05,132.425,76.455,3.526-2.049m135.981,78.508-132.431-76.459-3.527,2.05,132.431,76.459,3.527-2.05" transform="translate(-7.63 -408.352)"/><path class="cls-4" d="M959.106,564.655,826.676,488.2l-3.521,2.046L955.586,566.7l3.52-2.046m135.975,78.5L962.65,566.7l-3.52,2.045,132.43,76.459,3.521-2.046m135.974,78.505-132.431-76.459-3.52,2.046,132.43,76.459,3.521-2.046m135.98,78.508L1234.6,723.714l-3.52,2.045,132.431,76.459,3.52-2.046m135.974,78.505-132.431-76.459-3.52,2.046,132.431,76.459,3.52-2.046m135.974,78.505-132.424-76.455-3.52,2.045,132.424,76.456,3.52-2.046m135.981,78.508-132.431-76.459-3.52,2.046,132.43,76.459,3.521-2.046" transform="translate(-7.63 -408.352)"/><polyline class="cls-4" points="953.601 1100.228 821.171 1023.769 819.407 1024.794 815.857 1022.744 817.621 1021.72 685.196 945.264 683.433 946.289 679.883 944.24 681.647 943.215 549.216 866.756 547.452 867.781 543.909 865.735 545.672 864.71 413.242 788.251 411.478 789.276 407.929 787.227 409.692 786.202 277.261 709.743 275.498 710.768 271.955 708.722 273.718 707.697 141.287 631.238 139.524 632.263 135.98 630.217 137.744 629.192 5.313 552.734 3.55 553.758 1.775 552.734 0.012 553.758 951.843 1103.298 953.606 1102.274 951.838 1101.253 953.601 1100.228"/><polyline class="cls-4" points="952.912 2.05 951.137 1.025 949.362 0 0 551.709 1.775 552.734 3.55 553.758 5.313 552.734 137.41 475.968 140.936 473.918 273.033 397.152 276.56 395.103 408.656 318.337 412.183 316.287 544.279 239.521 547.806 237.471 679.902 160.705 683.429 158.656 815.525 81.89 819.046 79.844 951.149 3.074 952.912 2.05"/><polyline class="cls-4" points="1768.769 473.085 1765.219 471.035 1763.456 472.06 1631.353 548.83 1627.833 550.876 1495.736 627.642 1492.21 629.691 1360.113 706.457 1356.586 708.507 1224.49 785.273 1220.963 787.322 1088.867 864.088 1085.34 866.138 953.244 942.904 949.717 944.954 817.621 1021.72 815.857 1022.744 819.407 1024.794 821.171 1023.769 953.267 947.003 956.794 944.954 1088.89 868.187 1092.417 866.138 1224.513 789.372 1228.04 787.322 1360.136 710.556 1363.663 708.507 1495.759 631.741 1499.286 629.691 1631.383 552.925 1634.903 550.879 1767.006 474.11 1768.769 473.085"/><polyline class="cls-4" points="1632.795 394.58 1629.245 392.531 1627.482 393.556 1495.379 470.325 1491.859 472.371 1359.762 549.137 1356.235 551.187 1224.139 627.953 1220.612 630.002 1088.516 706.768 1084.989 708.818 952.893 785.584 949.366 787.633 817.27 864.399 813.743 866.449 681.647 943.215 679.883 944.24 683.433 946.289 685.196 945.264 817.293 868.498 820.82 866.449 952.916 789.683 956.443 787.633 1088.539 710.867 1092.066 708.818 1224.162 632.052 1227.689 630.002 1359.785 553.236 1363.312 551.187 1495.408 474.421 1498.929 472.375 1631.032 395.605 1632.795 394.58"/><polyline class="cls-4" points="1496.815 316.072 1493.271 314.026 1491.508 315.051 1359.405 391.82 1355.885 393.866 1223.788 470.632 1220.261 472.682 1088.165 549.448 1084.638 551.497 952.542 628.263 949.015 630.313 816.919 707.079 813.392 709.129 681.296 785.895 677.769 787.944 545.672 864.71 543.909 865.735 547.452 867.781 549.216 866.756 681.312 789.99 684.839 787.94 816.935 711.174 820.462 709.125 952.559 632.359 956.085 630.309 1088.182 553.543 1091.708 551.494 1223.805 474.728 1227.332 472.678 1359.428 395.912 1362.948 393.866 1495.051 317.097 1496.815 316.072"/><polyline class="cls-4" points="1360.841 237.567 1357.291 235.518 1355.527 236.542 1223.425 313.312 1219.904 315.358 1087.808 392.124 1084.281 394.174 952.185 470.94 948.658 472.989 816.561 549.755 813.035 551.805 680.938 628.571 677.412 630.62 545.315 707.386 541.788 709.436 409.692 786.202 407.929 787.227 411.478 789.276 413.242 788.251 545.338 711.485 548.865 709.436 680.961 632.67 684.488 630.62 816.585 553.854 820.111 551.805 952.208 475.039 955.734 472.989 1087.831 396.223 1091.358 394.174 1223.454 317.408 1226.974 315.362 1359.077 238.592 1360.841 237.567"/><polyline class="cls-4" points="1224.86 159.059 1221.317 157.013 1219.553 158.038 1087.45 234.808 1083.93 236.853 951.834 313.619 948.307 315.669 816.211 392.435 812.684 394.484 680.587 471.25 677.061 473.3 544.964 550.066 541.437 552.116 409.341 628.882 405.814 630.931 273.718 707.697 271.955 708.722 275.498 710.768 277.261 709.743 409.358 632.977 412.885 630.927 544.981 554.161 548.508 552.112 680.604 475.346 684.131 473.296 816.227 396.53 819.754 394.481 951.85 317.715 955.377 315.665 1087.474 238.899 1090.994 236.853 1223.097 160.084 1224.86 159.059"/><polyline class="cls-4" points="1088.886 80.554 1085.343 78.508 1083.579 79.533 951.476 156.303 947.956 158.349 815.86 235.115 812.333 237.164 680.236 313.93 676.71 315.98 544.613 392.746 541.087 394.795 408.99 471.561 405.463 473.611 273.367 550.377 269.84 552.427 137.744 629.192 135.98 630.217 139.524 632.263 141.287 631.238 273.384 554.472 276.911 552.423 409.007 475.657 412.534 473.607 544.63 396.841 548.157 394.792 680.253 318.026 683.78 315.976 815.876 239.21 819.403 237.161 951.499 160.395 955.02 158.349 1087.123 81.579 1088.886 80.554"/><polyline class="cls-4" points="1904.743 551.59 1902.968 550.565 1901.2 549.544 1899.436 550.569 1767.334 627.338 1763.813 629.384 1631.717 706.15 1628.19 708.2 1496.094 784.966 1492.567 787.015 1360.471 863.781 1356.944 865.831 1224.847 942.597 1221.321 944.646 1089.224 1021.412 1085.697 1023.462 953.601 1100.228 951.838 1101.253 953.606 1102.274 955.381 1103.299 1904.743 551.59"/></g></g><g class="cls-2"><polygon points="338.242 468.561 336.692 570.063 271.39 595.287 272.94 493.785 338.242 468.561"/><polygon points="585.866 624.574 584.316 726.076 336.692 570.063 338.242 468.561 585.866 624.574"/><polygon class="cls-5" points="467.066 593.054 465.515 694.556 326.798 605.413 328.348 503.91 467.066 593.054"/><polygon points="459.453 592.467 457.903 693.97 345.773 621.909 347.323 520.406 459.453 592.467"/><polygon points="416.942 612.411 415.392 713.914 326.798 605.413 328.348 503.911 416.942 612.411"/><polygon points="467.066 593.054 465.515 694.556 415.392 713.914 416.942 612.411 467.066 593.054"/><polygon class="cls-5" points="497.632 612.353 496.081 713.856 434.801 737.526 436.352 636.024 497.632 612.353"/><polygon points="496.876 616.17 495.325 717.673 441.176 738.591 442.726 637.089 496.876 616.17"/><polygon points="465.096 671.218 463.546 772.721 434.801 737.526 436.352 636.024 465.096 671.218"/><polygon class="cls-5" points="585.866 624.574 584.315 726.076 541.074 742.777 542.625 641.274 585.866 624.574"/><polygon class="cls-5" points="542.625 641.274 541.074 742.777 496.081 713.856 497.632 612.353 542.625 641.274"/><polygon class="cls-5" points="426.121 686.265 424.571 787.768 271.389 595.288 272.94 493.785 426.121 686.265"/><polygon class="cls-5" points="465.096 671.218 463.546 772.721 424.571 787.768 426.121 686.265 465.096 671.218"/><path d="M346.592,873.112l254.561,160.382L549.5,1053.443l-44.993-28.921-54.15,20.919,28.745,35.194-47.387,18.3L274.24,901.053Zm158.67,147.593,44.993,28.921,43.241-16.7L345.872,876.912l-65.3,25.225,153.181,192.48,38.975-15.047-28.744-35.195,61.28-23.67" transform="translate(-7.63 -408.352)"/><path class="cls-5" d="M345.872,876.913,593.5,1032.926l-43.241,16.7-44.993-28.921-61.28,23.67,28.744,35.195-38.974,15.047L280.57,902.137Zm78.7,143.85,50.123-19.357L335.978,912.262l88.595,108.5" transform="translate(-7.63 -408.352)"/><path d="M424.572,1020.763l-88.594-108.5L474.7,1001.406Zm-69.619-92,71.613,87.71,40.517-15.649-112.13-72.061" transform="translate(-7.63 -408.352)"/><polygon points="593.523 625.142 591.972 726.644 540.318 746.594 541.869 645.091 593.523 625.142"/><polygon points="541.869 645.091 540.318 746.594 495.325 717.673 496.876 616.17 541.869 645.091"/><polygon points="471.471 672.283 469.921 773.786 422.533 792.082 424.084 690.579 471.471 672.283"/><polygon points="424.084 690.579 422.533 792.082 265.059 594.204 266.61 492.701 424.084 690.579"/></g><g class="cls-2"><g class="cls-2"><g class="cls-6"><g class="cls-2"><path d="M607.406,936.958l-71.991-50.515a128.317,128.317,0,0,0,16.729-7.128l71.992,50.515a128.058,128.058,0,0,1-16.73,7.128" transform="translate(-7.63 -408.352)"/><path d="M624.136,929.83l-71.992-50.515a105.435,105.435,0,0,0,15.452-9.691l71.991,50.516a105.473,105.473,0,0,1-15.451,9.69" transform="translate(-7.63 -408.352)"/><path d="M639.587,920.14,567.6,869.624A90.4,90.4,0,0,0,583.44,854.3l71.991,50.516a90.4,90.4,0,0,1-15.844,15.328" transform="translate(-7.63 -408.352)"/><path d="M655.431,904.812,583.44,854.3a86.813,86.813,0,0,0,10.444-16.478l71.992,50.516a86.818,86.818,0,0,1-10.445,16.478" transform="translate(-7.63 -408.352)"/><path d="M665.876,888.334l-71.992-50.516a96.832,96.832,0,0,0,7.823-23.522L673.7,864.812a96.874,96.874,0,0,1-7.822,23.522" transform="translate(-7.63 -408.352)"/><path d="M673.7,864.812,601.707,814.3a122.166,122.166,0,0,0,2.274-22.531l71.992,50.516a122.251,122.251,0,0,1-2.275,22.531" transform="translate(-7.63 -408.352)"/><path d="M675.973,842.281l-71.992-50.516q.009-.769.01-1.543l71.991,50.516q0,.774-.009,1.543" transform="translate(-7.63 -408.352)"/></g></g></g><polygon points="668.352 432.386 596.361 381.87 596.386 356.256 668.377 406.772 668.352 432.386"/><g class="cls-2"><g class="cls-7"><g class="cls-2"><path class="cls-5" d="M626.877,882.155l-71.991-50.516A33.647,33.647,0,0,0,557,827.883L628.993,878.4a33.737,33.737,0,0,1-2.116,3.757" transform="translate(-7.63 -408.352)"/><path class="cls-5" d="M628.993,878.4,557,827.883a42.82,42.82,0,0,0,3.354-10.3L632.346,868.1a42.856,42.856,0,0,1-3.353,10.3" transform="translate(-7.63 -408.352)"/></g></g></g><g class="cls-2"><g class="cls-8"><g class="cls-2"><path class="cls-5" d="M607.441,896.365,535.45,845.849a48.972,48.972,0,0,0,6.407-2.722l71.991,50.515a48.838,48.838,0,0,1-6.407,2.723" transform="translate(-7.63 -408.352)"/><path class="cls-5" d="M613.848,893.642l-71.991-50.515a37.793,37.793,0,0,0,5.529-3.464l71.991,50.516a37.874,37.874,0,0,1-5.529,3.463" transform="translate(-7.63 -408.352)"/><path class="cls-5" d="M619.377,890.179l-71.991-50.516a32.074,32.074,0,0,0,5.607-5.42l71.991,50.516a32.11,32.11,0,0,1-5.607,5.42" transform="translate(-7.63 -408.352)"/><path class="cls-5" d="M624.984,884.759l-71.991-50.516a31.921,31.921,0,0,0,1.893-2.6l71.991,50.516a31.685,31.685,0,0,1-1.893,2.6" transform="translate(-7.63 -408.352)"/></g></g></g><g class="cls-2"><g class="cls-9"><g class="cls-2"><path d="M607.443,892.019,535.452,841.5a44.725,44.725,0,0,0,5.842-2.474l71.992,50.516a44.741,44.741,0,0,1-5.843,2.473" transform="translate(-7.63 -408.352)"/><path d="M613.286,889.546,541.294,839.03a31.363,31.363,0,0,0,4.6-2.872l71.992,50.516a31.469,31.469,0,0,1-4.6,2.872" transform="translate(-7.63 -408.352)"/><path d="M617.881,886.674l-71.992-50.516a25.367,25.367,0,0,0,4.447-4.295l71.991,50.516a25.36,25.36,0,0,1-4.446,4.295" transform="translate(-7.63 -408.352)"/><path d="M622.327,882.379l-71.991-50.516a24.923,24.923,0,0,0,1.5-2.069l71.991,50.516a24.923,24.923,0,0,1-1.5,2.069" transform="translate(-7.63 -408.352)"/></g></g></g><g class="cls-2"><g class="cls-10"><g class="cls-2"><path class="cls-5" d="M628.993,878.4,557,827.883a42.82,42.82,0,0,0,3.354-10.3L632.346,868.1a42.856,42.856,0,0,1-3.353,10.3" transform="translate(-7.63 -408.352)"/><path class="cls-5" d="M632.346,868.1l-71.991-50.516a70.4,70.4,0,0,0,1.243-12.913l71.991,50.516a70.32,70.32,0,0,1-1.243,12.913" transform="translate(-7.63 -408.352)"/><path class="cls-5" d="M633.589,855.189,561.6,804.673c0-.355.007-.713.007-1.073L633.6,854.116q0,.54-.007,1.073" transform="translate(-7.63 -408.352)"/></g></g></g><g class="cls-2"><g class="cls-11"><g class="cls-2"><path d="M623.829,880.31l-71.991-50.516a27.012,27.012,0,0,0,1.7-3.024l71.991,50.516a26.943,26.943,0,0,1-1.7,3.024" transform="translate(-7.63 -408.352)"/><path d="M625.531,877.286,553.54,826.77a36.57,36.57,0,0,0,2.837-8.765l71.991,50.515a36.52,36.52,0,0,1-2.837,8.766" transform="translate(-7.63 -408.352)"/><path d="M628.368,868.52l-71.991-50.515a65.377,65.377,0,0,0,1.136-11.957L629.5,856.564a65.365,65.365,0,0,1-1.136,11.956" transform="translate(-7.63 -408.352)"/><path d="M629.5,856.564l-71.991-50.516q.006-.513.006-1.035l71.991,50.516q0,.52-.006,1.035" transform="translate(-7.63 -408.352)"/></g></g></g><polygon class="cls-5" points="571.154 497.969 499.163 447.454 527.82 437.498 599.811 488.013 571.154 497.969"/><polygon points="575.243 492.203 503.252 441.687 527.822 433.152 599.813 483.667 575.243 492.203"/><polygon class="cls-5" points="625.966 445.764 553.975 395.249 554 367.836 625.992 418.352 625.966 445.764"/><polygon points="528.728 553.275 456.737 502.759 527.785 478.091 599.776 528.607 528.728 553.275"/><polygon points="621.88 447.177 549.889 396.661 549.915 369.249 621.906 419.765 621.88 447.177"/><g class="cls-2"><g class="cls-12"><g class="cls-2"><path d="M676.007,815.124l-71.991-50.516a116.222,116.222,0,0,0-1.695-21.089l71.991,50.516a116.222,116.222,0,0,1,1.695,21.089" transform="translate(-7.63 -408.352)"/><path d="M674.312,794.035l-71.991-50.516a58.99,58.99,0,0,0-4.264-14.017l71.992,50.515a59.014,59.014,0,0,1,4.263,14.018" transform="translate(-7.63 -408.352)"/><path d="M670.049,780.017,598.057,729.5a32.065,32.065,0,0,0-10.567-13.189l71.991,50.515a32.088,32.088,0,0,1,10.568,13.189" transform="translate(-7.63 -408.352)"/></g></g></g><g class="cls-2"><g class="cls-13"><g class="cls-2"><path class="cls-5" d="M633.622,826.7,561.63,776.188a85.284,85.284,0,0,0-1.156-15.381l71.991,50.516a85.366,85.366,0,0,1,1.157,15.381" transform="translate(-7.63 -408.352)"/><path class="cls-5" d="M632.465,811.323l-71.991-50.516a33.35,33.35,0,0,0-2.366-7.879L630.1,803.444a33.336,33.336,0,0,1,2.366,7.879" transform="translate(-7.63 -408.352)"/><path class="cls-5" d="M630.1,803.444l-71.991-50.516a16.309,16.309,0,0,0-4.032-5.593,13.315,13.315,0,0,0-1.087-.85L624.98,797a13.315,13.315,0,0,1,1.087.85,16.3,16.3,0,0,1,4.032,5.593" transform="translate(-7.63 -408.352)"/></g></g></g><g class="cls-2"><g class="cls-14"><g class="cls-2"><path d="M629.536,828.117,557.545,777.6a81.811,81.811,0,0,0-1.085-14.63l71.991,50.516a81.8,81.8,0,0,1,1.085,14.63" transform="translate(-7.63 -408.352)"/><path d="M628.451,813.487,556.46,762.971a29.68,29.68,0,0,0-2.094-7.007l71.991,50.516a29.633,29.633,0,0,1,2.094,7.007" transform="translate(-7.63 -408.352)"/><path d="M626.357,806.48l-71.991-50.516A13.644,13.644,0,0,0,551,751.271a10.441,10.441,0,0,0-.86-.674l71.991,50.516a10.614,10.614,0,0,1,.861.673,13.659,13.659,0,0,1,3.37,4.694" transform="translate(-7.63 -408.352)"/></g></g></g><g class="cls-2"><g class="cls-15"><g class="cls-2"><path d="M601.614,797.456l-71.991-50.515q1.458-.507,2.83-.927l71.991,50.516q-1.372.422-2.83.926" transform="translate(-7.63 -408.352)"/><path d="M604.444,796.53l-71.991-50.516q2.591-.793,4.888-1.282a35.7,35.7,0,0,1,4.933-.722l71.991,50.515a35.851,35.851,0,0,0-4.933.722q-2.3.489-4.888,1.283" transform="translate(-7.63 -408.352)"/><path d="M614.265,794.525,542.274,744.01c4.434-.309,7.921.514,10.715,2.475L624.98,797c-2.794-1.961-6.281-2.784-10.715-2.476" transform="translate(-7.63 -408.352)"/></g></g></g><g class="cls-2"><g class="cls-16"><g class="cls-2"><path class="cls-5" d="M630.1,803.444l-71.991-50.516a16.309,16.309,0,0,0-4.032-5.593,13.315,13.315,0,0,0-1.087-.85L624.98,797a13.315,13.315,0,0,1,1.087.85,16.3,16.3,0,0,1,4.032,5.593" transform="translate(-7.63 -408.352)"/></g></g></g><g class="cls-2"><g class="cls-17"><g class="cls-2"><path d="M648.243,757.205l-71.992-50.516a33.416,33.416,0,0,1,14.231,5.53l71.991,50.515a33.424,33.424,0,0,0-14.23-5.529" transform="translate(-7.63 -408.352)"/></g></g></g><g class="cls-2"><g class="cls-18"><g class="cls-2"><path class="cls-5" d="M642.72,761.328l-71.991-50.515a32.337,32.337,0,0,1,16.761,5.5l71.991,50.516a32.335,32.335,0,0,0-16.761-5.5" transform="translate(-7.63 -408.352)"/></g></g></g><polygon class="cls-5" points="630.654 352.673 558.663 302.158 563.099 302.461 635.09 352.976 630.654 352.673"/><polygon points="630.654 352.673 558.662 302.158 562.977 298.512 634.968 349.027 630.654 352.673"/><g class="cls-2"><g class="cls-19"><g class="cls-2"><path d="M642.6,757.379l-71.991-50.516a79.9,79.9,0,0,0,10.539-10.724l71.991,50.516A79.9,79.9,0,0,1,642.6,757.379" transform="translate(-7.63 -408.352)"/><path d="M653.137,746.655l-71.991-50.516a74.2,74.2,0,0,0,9.137-14.4l71.992,50.516a74.234,74.234,0,0,1-9.138,14.4" transform="translate(-7.63 -408.352)"/><path d="M662.275,732.25l-71.992-50.516a86.6,86.6,0,0,0,6.886-20.933l71.992,50.516a86.648,86.648,0,0,1-6.886,20.933" transform="translate(-7.63 -408.352)"/><path d="M669.161,711.317,597.169,660.8a127.9,127.9,0,0,0,2.3-23.533l71.991,50.516a127.985,127.985,0,0,1-2.3,23.533" transform="translate(-7.63 -408.352)"/><path d="M671.461,687.784,599.47,637.268q.01-.9.011-1.814l71.991,50.516q0,.912-.011,1.814" transform="translate(-7.63 -408.352)"/></g></g></g><polygon points="663.842 277.618 591.851 227.103 591.856 215.871 663.848 266.386 663.842 277.618"/><polygon points="571.154 497.969 499.163 447.454 499.247 346.492 571.238 397.008 571.154 497.969"/><polygon points="571.238 397.008 499.247 346.492 521.993 338.589 593.984 389.105 571.238 397.008"/><g class="cls-2"><g class="cls-20"><g class="cls-2"><path class="cls-5" d="M599.119,757.748l-71.991-50.516a57.066,57.066,0,0,0,7.43-3.157l71.991,50.516a57.066,57.066,0,0,1-7.43,3.157" transform="translate(-7.63 -408.352)"/><path class="cls-5" d="M606.549,754.591l-71.991-50.516a44.387,44.387,0,0,0,6.515-4.081l71.992,50.516a44.451,44.451,0,0,1-6.516,4.081" transform="translate(-7.63 -408.352)"/><path class="cls-5" d="M613.065,750.51l-71.992-50.516a37.382,37.382,0,0,0,6.615-6.416l71.991,50.516a37.376,37.376,0,0,1-6.614,6.416" transform="translate(-7.63 -408.352)"/><path class="cls-5" d="M619.679,744.094l-71.991-50.516a37.326,37.326,0,0,0,4.445-7.055l71.991,50.516a37.307,37.307,0,0,1-4.445,7.055" transform="translate(-7.63 -408.352)"/><path class="cls-5" d="M624.124,737.039l-71.991-50.516a46.3,46.3,0,0,0,3.684-11.218l71.992,50.515a46.247,46.247,0,0,1-3.685,11.219" transform="translate(-7.63 -408.352)"/><path class="cls-5" d="M627.809,725.82l-71.992-50.515a70.189,70.189,0,0,0,1.26-12.91l71.991,50.515a70.174,70.174,0,0,1-1.259,12.91" transform="translate(-7.63 -408.352)"/><path class="cls-5" d="M629.068,712.91,557.077,662.4c0-.325.006-.651.006-.98l71.991,50.516c0,.328,0,.655-.006.979" transform="translate(-7.63 -408.352)"/></g></g></g><g class="cls-2"><g class="cls-21"><g class="cls-2"><path d="M599.122,753.4l-71.991-50.516a52.312,52.312,0,0,0,6.8-2.884l71.991,50.515a52.313,52.313,0,0,1-6.8,2.885" transform="translate(-7.63 -408.352)"/><path d="M605.924,750.517,533.933,700a38.316,38.316,0,0,0,5.62-3.515L611.545,747a38.324,38.324,0,0,1-5.621,3.514" transform="translate(-7.63 -408.352)"/><path d="M611.545,747l-71.992-50.516a31.089,31.089,0,0,0,5.512-5.343l71.992,50.515A31.093,31.093,0,0,1,611.545,747" transform="translate(-7.63 -408.352)"/><path d="M617.057,741.659l-71.992-50.515a30.786,30.786,0,0,0,3.637-5.768l71.991,50.516a30.774,30.774,0,0,1-3.636,5.767" transform="translate(-7.63 -408.352)"/><path d="M620.693,735.892,548.7,685.376a39.4,39.4,0,0,0,3.144-9.6L623.837,726.3a39.315,39.315,0,0,1-3.144,9.6" transform="translate(-7.63 -408.352)"/><path d="M623.837,726.3l-71.991-50.516a65.234,65.234,0,0,0,1.146-11.978l71.991,50.516a65.234,65.234,0,0,1-1.146,11.978" transform="translate(-7.63 -408.352)"/><path d="M624.983,714.317,552.992,663.8c0-.322,0-.647.006-.973l71.991,50.516c0,.326,0,.651-.006.973" transform="translate(-7.63 -408.352)"/></g></g></g><polygon class="cls-5" points="621.444 303.579 549.453 253.064 549.472 235.535 621.463 286.051 621.444 303.579"/><polygon class="cls-5" points="571.273 356.414 499.282 305.899 519.498 298.881 591.489 349.396 571.273 356.414"/><polygon points="575.369 350.646 503.378 300.13 519.5 294.534 591.492 345.05 575.369 350.646"/><polygon points="617.359 304.992 545.368 254.476 545.378 236.957 617.369 287.473 617.359 304.992"/><g class="cls-2"><g class="cls-22"><g class="cls-2"><path d="M671.478,674.738l-71.991-50.516a116.721,116.721,0,0,0-1.689-21.178l71.991,50.516a116.631,116.631,0,0,1,1.689,21.178" transform="translate(-7.63 -408.352)"/><path d="M669.789,653.56,597.8,603.044a57.512,57.512,0,0,0-4.146-13.645l71.992,50.516a57.53,57.53,0,0,1,4.145,13.645" transform="translate(-7.63 -408.352)"/><path d="M665.644,639.915,593.652,589.4a31.247,31.247,0,0,0-9.9-12.537q-.185-.135-.372-.266l71.991,50.516c.125.087.249.176.372.265a31.259,31.259,0,0,1,9.9,12.538" transform="translate(-7.63 -408.352)"/></g></g></g><g class="cls-2"><g class="cls-23"><g class="cls-2"><path class="cls-5" d="M629.093,694.4,557.1,643.887a68.345,68.345,0,0,0-.96-12.336l71.991,50.516a68.345,68.345,0,0,1,.96,12.336" transform="translate(-7.63 -408.352)"/><path class="cls-5" d="M628.133,682.067l-71.991-50.516a29.728,29.728,0,0,0-2.12-7.03l71.991,50.516a29.728,29.728,0,0,1,2.12,7.03" transform="translate(-7.63 -408.352)"/><path class="cls-5" d="M626.013,675.037l-71.991-50.516a15.72,15.72,0,0,0-2.982-4.457,12.228,12.228,0,0,0-1.733-1.478L621.3,669.1a12.3,12.3,0,0,1,1.733,1.478,15.725,15.725,0,0,1,2.982,4.458" transform="translate(-7.63 -408.352)"/></g></g></g><g class="cls-2"><g class="cls-24"><g class="cls-2"><path d="M625,695.825l-71.991-50.516a64.249,64.249,0,0,0-.885-11.6l71.992,50.515a64.369,64.369,0,0,1,.884,11.6" transform="translate(-7.63 -408.352)"/><path d="M624.115,684.222l-71.992-50.515a26.083,26.083,0,0,0-1.85-6.165l71.991,50.516a26.058,26.058,0,0,1,1.851,6.164" transform="translate(-7.63 -408.352)"/><path d="M622.264,678.058l-71.991-50.516a13.05,13.05,0,0,0-2.46-3.693,9.477,9.477,0,0,0-1.334-1.137l71.991,50.516a9.477,9.477,0,0,1,1.334,1.137,13.035,13.035,0,0,1,2.46,3.693" transform="translate(-7.63 -408.352)"/></g></g></g><g class="cls-2"><g class="cls-25"><g class="cls-2"><path class="cls-5" d="M631.375,621.7l-71.991-50.516c9.928-.69,17.873,1.116,24,5.414l71.991,50.516c-6.125-4.3-14.07-6.1-24-5.414" transform="translate(-7.63 -408.352)"/></g></g></g><g class="cls-2"><g class="cls-26"><g class="cls-2"><path class="cls-5" d="M631.375,621.7l-71.991-50.516c9.928-.69,17.873,1.116,24,5.414l71.991,50.516c-6.125-4.3-14.07-6.1-24-5.414" transform="translate(-7.63 -408.352)"/></g></g></g><g class="cls-2"><g class="cls-27"><g class="cls-2"><path d="M603.415,668.8l-71.991-50.516q.857-.3,1.682-.55L605.1,668.251q-.825.254-1.682.551" transform="translate(-7.63 -408.352)"/><path d="M605.1,668.251l-71.991-50.515q1.66-.51,3.2-.836a26.763,26.763,0,0,1,3.7-.535l71.991,50.516a26.633,26.633,0,0,0-3.7.535q-1.538.327-3.2.835" transform="translate(-7.63 -408.352)"/><path d="M611.989,666.881,540,616.365a14.011,14.011,0,0,1,9.31,2.221L621.3,669.1a14.01,14.01,0,0,0-9.31-2.221" transform="translate(-7.63 -408.352)"/></g></g></g><path d="M629.075,711.931c-.023,24.17-9.538,38.725-29.956,45.817L578.9,764.766l.076-87.481,24.436-8.483a40.606,40.606,0,0,1,4.879-1.386c6.479-1.378,11.328-.327,14.737,3.163,4.09,4.179,6.067,11.976,6.062,23.824ZM583,759l16.123-5.6c18.111-6.3,25.848-18.271,25.867-40.058l.01-17.519c.011-10.847-1.686-17.869-5.2-21.46-2.714-2.779-6.685-3.591-12.074-2.445a36.053,36.053,0,0,0-4.317,1.228l-20.35,7.062L583,759" transform="translate(-7.63 -408.352)"/><polygon points="571.349 268.933 499.358 218.417 523.794 209.935 595.785 260.45 571.349 268.933"/><polygon points="571.273 356.414 499.281 305.898 499.358 218.417 571.349 268.933 571.273 356.414"/><g class="cls-2"><g class="cls-28"><g class="cls-2"><path class="cls-5" d="M604.717,627.774l-71.991-50.516q2.857-.993,5.58-1.827L610.3,625.947q-2.723.834-5.58,1.827" transform="translate(-7.63 -408.352)"/><path class="cls-5" d="M610.3,625.947l-71.991-50.516q5.325-1.632,10.148-2.657a79.161,79.161,0,0,1,10.93-1.593L631.375,621.7a79.2,79.2,0,0,0-10.93,1.593q-4.826,1.026-10.148,2.657" transform="translate(-7.63 -408.352)"/><path class="cls-5" d="M631.375,621.7l-71.991-50.516c9.928-.69,17.873,1.116,24,5.414l71.991,50.516c-6.125-4.3-14.07-6.1-24-5.414" transform="translate(-7.63 -408.352)"/></g></g></g><polygon class="cls-5" points="528.729 553.275 456.737 502.759 457.007 192.551 528.999 243.067 528.729 553.275"/><polygon class="cls-5" points="528.999 243.067 457.007 192.551 525.096 168.906 597.087 219.422 528.999 243.067"/><path d="M680.068,839.325c-.019,24.824-6.244,46.164-18.5,63.439C649.25,920.13,631.025,933.1,607.4,941.305L532.27,967.394l.275-318.908,72.183-25.068A136.249,136.249,0,0,1,620.95,618.8c16.369-3.479,28.786-1.98,37.7,4.506,11.4,8.294,16.939,24.65,16.914,50.012l0,11.232c-.026,31.805-8.734,55.045-27.316,72.655,21.447,3.375,31.876,21.916,31.85,56.506Zm-72.662,97.633c44.825-15.569,68.535-48.835,68.576-96.22l.025-25.614c.025-34.692-10.864-52.284-33.287-53.8l-4.436-.3,4.314-3.646c19.667-16.649,28.845-39.335,28.874-71.409l.006-11.232c.02-24.154-5.121-39.655-15.732-47.361-8.251-6-19.879-7.365-35.3-4.087a131.3,131.3,0,0,0-15.728,4.484l-68.089,23.645-.271,310.208,71.048-24.669" transform="translate(-7.63 -408.352)"/><path d="M633.622,826.7l-.026,27.412c-.009,11.943-2.205,21.117-6.719,28.039-4.237,6.492-10.589,11.139-19.436,14.21l-28.657,9.956.084-100.961,22.746-7.9a65.146,65.146,0,0,1,7.718-2.209c7.566-1.608,12.872-.747,16.735,2.6C631.232,802.337,633.636,811.5,633.622,826.7Zm-9.793,53.606c3.812-5.842,5.672-13.95,5.681-24.781l.026-27.412c.006-14.079-2.07-22.448-6.549-26.331-3.165-2.751-7.674-3.428-14.2-2.041a60.55,60.55,0,0,0-7.175,2.058l-18.66,6.482-.079,92.269,24.57-8.535c7.721-2.682,12.926-6.4,16.386-11.709" transform="translate(-7.63 -408.352)"/><g class="cls-2"><g class="cls-29"><g class="cls-2"><path d="M604.728,623.418,532.737,572.9q2.9-1.007,5.675-1.857L610.4,621.561q-2.772.851-5.675,1.857" transform="translate(-7.63 -408.352)"/><path d="M610.4,621.561l-71.991-50.516q5.526-1.692,10.547-2.76a83.07,83.07,0,0,1,11.483-1.672l71.991,50.516A83.083,83.083,0,0,0,620.95,618.8q-5.024,1.07-10.547,2.761" transform="translate(-7.63 -408.352)"/><path d="M632.433,617.129l-71.991-50.516c10.62-.739,19.161,1.22,25.8,5.88l71.991,50.516c-6.64-4.66-15.18-6.619-25.8-5.88" transform="translate(-7.63 -408.352)"/></g></g></g><path class="cls-5" d="M675.982,840.737c-.041,47.386-23.751,80.652-68.576,96.222l-71.047,24.668.27-310.208,68.088-23.645a131.405,131.405,0,0,1,15.728-4.484c15.423-3.278,27.05-1.912,35.3,4.087,10.611,7.706,15.752,23.207,15.732,47.361l-.006,11.232c-.029,32.074-9.207,54.76-28.874,71.409l-4.314,3.646,4.436.3c22.423,1.512,33.312,19.1,33.287,53.8Zm-49.105,41.418c4.514-6.922,6.71-16.1,6.719-28.039l.026-27.412c.014-15.2-2.39-24.367-7.555-28.853-3.863-3.35-9.169-4.212-16.735-2.6a64.715,64.715,0,0,0-7.718,2.209l-22.746,7.9-.084,100.962,28.657-9.956c8.847-3.071,15.2-7.718,19.436-14.21m-47.9-204.87-.076,87.481,20.216-7.018c20.418-7.092,29.933-21.647,29.955-45.817l.019-17.528c0-11.848-1.972-19.645-6.062-23.824-3.409-3.49-8.257-4.54-14.737-3.163a40.606,40.606,0,0,0-4.879,1.386l-24.436,8.483" transform="translate(-7.63 -408.352)"/><polygon points="524.915 240.134 452.924 189.618 525.107 164.55 597.098 215.066 524.915 240.134"/><polygon points="524.639 559.042 452.648 508.526 452.924 189.618 524.915 240.134 524.639 559.042"/></g><g class="cls-2"><polygon points="863.43 145.069 966.274 124.581 967.768 169.825 864.925 190.313 863.43 145.069"/><polygon points="908.56 501.768 1011.403 481.28 1040.823 490.774 937.98 511.263 908.56 501.768"/><polygon points="864.925 190.313 967.768 169.825 1001.494 180.706 898.651 201.195 864.925 190.313"/><polygon points="898.651 201.195 1001.494 180.706 1011.403 481.28 908.56 501.768 898.651 201.195"/><polygon class="cls-5" points="928.077 210.685 1030.921 190.197 1040.824 490.774 937.98 511.263 928.077 210.685"/><polygon points="931.072 216.445 1033.916 195.956 1043.824 496.538 940.981 517.027 931.072 216.445"/><polygon points="928.077 210.685 1030.92 190.196 1064.647 201.078 961.803 221.566 928.077 210.685"/><polygon class="cls-5" points="960.315 176.319 1063.158 155.83 1064.647 201.078 961.804 221.567 960.315 176.319"/><polygon class="cls-5" points="960.315 176.319 961.804 221.567 928.077 210.685 937.98 511.263 908.56 501.769 898.651 201.195 864.925 190.314 863.431 145.07 960.315 176.319"/><polygon class="cls-5" points="863.431 145.07 966.274 124.581 1063.158 155.83 960.315 176.319 863.431 145.07"/><path d="M938.7,624.8l9.909,300.582-35.1-11.322L903.6,613.475,869.876,602.6l-1.811-54.94,102.557,33.081,1.807,54.937Zm-32.421-15.25L916.19,910.12l29.42,9.494-9.9-300.577,33.726,10.881-1.488-45.248-96.884-31.249,1.494,45.244,33.726,10.882" transform="translate(-7.63 -408.352)"/><polygon points="860.435 139.309 963.279 118.82 1065.836 151.902 962.992 172.39 860.435 139.309"/><polygon points="962.992 172.39 1065.836 151.902 1067.642 206.838 964.799 227.327 962.992 172.39"/></g><g class="cls-2"><path d="M612.033,1056.766l1.551-101.5a23.319,23.319,0,0,1,.842-5.87c3.311-12.039,16.3-22.51,38.592-31.117q6.707-2.6,13.336-4.49c39.721-11.39,76.846-4.159,105.685,20.915l-1.551,101.5c-28.839-25.074-65.963-32.306-105.685-20.916q-6.63,1.9-13.336,4.49c-22.289,8.607-35.281,19.079-38.592,31.117A23.365,23.365,0,0,0,612.033,1056.766Z" transform="translate(-7.63 -408.352)"/><path class="cls-5" d="M681.023,1041.4q.775-50.751,1.55-101.5.813-.26,1.622-.491c.318-.092.636-.179.953-.264l-1.551,101.5q-.476.126-.953.263Q681.836,1041.139,681.023,1041.4Z" transform="translate(-7.63 -408.352)"/><path class="cls-5" d="M683.6,1040.643l1.551-101.5c12.682-3.388,24.553-1.563,35.442,5.441l-1.551,101.5C708.151,1039.08,696.279,1037.255,683.6,1040.643Z" transform="translate(-7.63 -408.352)"/><path class="cls-5" d="M719.039,1046.084l1.551-101.5q.816.525,1.626,1.089l-1.551,101.5Q719.857,1046.609,719.039,1046.084Z" transform="translate(-7.63 -408.352)"/><path class="cls-5" d="M720.74,1047.225l-.075-.052,1.551-101.5.075.053Z" transform="translate(-7.63 -408.352)"/><path class="cls-5" d="M720.74,1047.225l1.551-101.5a58,58,0,0,1,4.822,3.777l-1.55,101.5A58.438,58.438,0,0,0,720.74,1047.225Z" transform="translate(-7.63 -408.352)"/><path class="cls-5" d="M677.688,1042.576q-14.4,5.566-14.538,13.723l1.55-101.5q.132-8.135,14.539-13.723,1.675-.646,3.334-1.178-.774,50.753-1.55,101.5Q679.364,1041.929,677.688,1042.576Z" transform="translate(-7.63 -408.352)"/><path d="M668.116,1056.443l1.55-101.5c.069-4.511,4.189-8.258,12.386-11.421q2.245-.868,4.428-1.494c13.345-3.826,25.043-.886,36.5,9.073l-1.551,101.5c-11.455-9.959-23.154-12.9-36.5-9.072q-2.185.627-4.429,1.493C672.3,1048.184,668.185,1051.931,668.116,1056.443Z" transform="translate(-7.63 -408.352)"/><path d="M663.149,1056.308l1.551-101.5q-.1,6.719,9.538,15.118l-1.551,101.5Q663.045,1063.038,663.149,1056.308Z" transform="translate(-7.63 -408.352)"/><path class="cls-5" d="M631.836,1089.757c-13.319-11.578-19.955-22.64-19.8-32.976l1.55-101.5c-.151,10.335,6.485,21.4,19.8,32.975Z" transform="translate(-7.63 -408.352)"/><path d="M607.033,1056.7l1.55-101.5c-.167,10.937,6.761,22.564,20.669,34.657l-1.551,101.5C613.794,1079.261,606.865,1067.635,607.033,1056.7Z" transform="translate(-7.63 -408.352)"/><polygon points="870.08 618.229 868.529 719.732 762.858 627.853 764.409 526.351 870.08 618.229"/><polygon class="cls-5" points="829.22 636.562 827.669 738.065 717.933 642.65 719.483 541.148 829.22 636.562"/><polygon points="825.086 638.16 823.535 739.663 713.798 644.248 715.349 542.746 825.086 638.16"/><path d="M897.53,1059.63l-1.551,101.5c.157-10.266-6.418-21.393-19.82-33.048l1.551-101.5C891.111,1038.236,897.686,1049.364,897.53,1059.63Z" transform="translate(-7.63 -408.352)"/><path class="cls-5" d="M846.37,1060.028l-1.55,101.5c.068-4.477-3.122-9.552-9.521-15.114l1.551-101.5C843.249,1050.476,846.439,1055.551,846.37,1060.028Z" transform="translate(-7.63 -408.352)"/><path d="M841.372,1059.94l-1.551,101.5c.059-3.864-2.843-8.372-8.656-13.427l1.551-101.5C838.529,1051.567,841.431,1056.076,841.372,1059.94Z" transform="translate(-7.63 -408.352)"/><polygon points="776.34 656.981 774.789 758.484 665.057 663.074 666.608 561.571 776.34 656.981"/><path d="M846.37,1060.028l-1.55,101.5a8.926,8.926,0,0,1-.23,1.885c-1.077,4.616-5.883,8.6-14.3,11.847-1.634.634-3.269,1.185-4.89,1.65a45.232,45.232,0,0,1-19.484,1.439c-8.273-1.281-16.182-5.153-23.5-11.515l1.55-101.5c7.319,6.363,15.228,10.235,23.5,11.515a45.236,45.236,0,0,0,19.485-1.439c1.62-.464,3.256-1.016,4.89-1.649,8.412-3.249,13.219-7.232,14.295-11.848A8.852,8.852,0,0,0,846.37,1060.028Z" transform="translate(-7.63 -408.352)"/><polygon class="cls-5" points="731.427 671.781 729.876 773.283 624.205 681.405 625.756 579.902 731.427 671.781"/><path class="cls-5" d="M756.4,1194.9a108.9,108.9,0,0,1-18.9-13.264q.39-25.437.8-50.875.387-25.314.756-50.627,2.974,2.586,6.064,4.922-.771,50.535-1.544,101.07.773-50.535,1.544-101.07l.024.018-1.548,101.31.876-57.317c.06-3.951.141-9.218.2-13.168.059-3.842.137-8.966.2-12.808.055-3.663.13-8.547.186-12.211.027-1.742.089-4.064.089-5.806q3.078,2.325,6.269,4.4-.773,50.607-1.546,101.214.772-50.607,1.546-101.214l.024.015-1.548,101.359,1.548-101.359q3.2,2.082,6.516,3.908Q757.179,1144.149,756.4,1194.9Z" transform="translate(-7.63 -408.352)"/><path class="cls-5" d="M756.4,1194.9q.776-50.751,1.55-101.5a102.373,102.373,0,0,0,13.675,6.283q-.776,50.727-1.55,101.454.774-50.727,1.55-101.454,3.522,1.313,7.146,2.369-.775,50.727-1.55,101.454.775-50.727,1.55-101.454a105.568,105.568,0,0,0,14.88,3.179c16.327,2.282,33.442.885,51.027-4.157q6.652-1.906,13.388-4.509c26.022-10.051,39.26-22.672,39.46-36.961l-1.55,101.5c-.2,14.288-13.439,26.909-39.461,36.961q-6.735,2.6-13.388,4.509c-17.584,5.042-34.7,6.439-51.026,4.157A102.978,102.978,0,0,1,756.4,1194.9Zm6.733,3.3v0l.089-5.816.092-6.023.1-6.2.1-6.35.1-6.468.1-6.558.1-6.617.1-6.647.1-6.646.1-6.617.1-6.558.1-6.469.1-6.349.1-6.2.092-6.023.089-5.815-.089,5.815-.092,6.023-.1,6.2-.1,6.349-.1,6.469-.1,6.558-.1,6.617-.1,6.646-.1,6.647-.1,6.617-.1,6.558-.1,6.468-.1,6.35-.1,6.2-.092,6.023-.089,5.816" transform="translate(-7.63 -408.352)"/><path d="M881.844,1024.983c16.617,14.45,23.258,28.23,19.754,40.972-3.543,12.859-17.235,23.98-40.719,33.047q-7.013,2.709-13.957,4.7c-18.633,5.343-36.862,6.811-54.36,4.363a109.669,109.669,0,0,1-57.644-26.336L629.252,989.852c-16.617-14.449-23.271-28.233-19.762-40.97,3.539-12.864,17.243-23.981,40.727-33.049q7.013-2.709,13.965-4.7c18.62-5.339,36.845-6.807,54.34-4.36a109.687,109.687,0,0,1,57.651,26.335Zm-23.775,71.578c44.7-17.267,51.679-42.117,19.641-69.98L772.039,934.7c-28.839-25.074-65.964-32.3-105.685-20.915q-6.63,1.9-13.336,4.49c-22.29,8.607-35.281,19.078-38.592,31.117-3.3,11.982,3.079,25.054,18.96,38.86l105.671,91.879a103.97,103.97,0,0,0,54.6,25.094c16.327,2.282,33.442.885,51.027-4.157q6.652-1.908,13.387-4.509" transform="translate(-7.63 -408.352)"/><path d="M727.113,949.5l109.737,95.414c7.314,6.358,10.436,12.08,9.29,17-1.076,4.616-5.883,8.6-14.295,11.848-1.634.633-3.27,1.185-4.89,1.649a45.236,45.236,0,0,1-19.485,1.439c-8.272-1.28-16.181-5.152-23.5-11.515l-109.732-95.41c-14.219-12.368-12.534-22.072,5-28.85q2.5-.965,4.957-1.669C699.825,934.922,714.237,938.308,727.113,949.5Zm114.072,111.971c.978-4.186-1.87-9.221-8.469-14.959L722.979,951.1c-11.456-9.959-23.154-12.9-36.5-9.073q-2.184.627-4.428,1.494c-15.215,5.871-16.382,13.753-3.672,24.8l109.733,95.41c6.6,5.743,13.516,9.2,20.564,10.3a36.67,36.67,0,0,0,15.923-1.213q2.181-.626,4.435-1.5c7.288-2.815,11.262-6.034,12.15-9.848" transform="translate(-7.63 -408.352)"/><polygon points="727.288 673.374 725.738 774.877 620.071 683.003 621.622 581.5 727.288 673.374"/><path class="cls-5" d="M877.709,1026.581c32.039,27.863,25.064,52.713-19.639,69.98q-6.735,2.6-13.388,4.509c-17.585,5.042-34.7,6.439-51.027,4.157a103.97,103.97,0,0,1-54.6-25.094L633.386,988.254c-15.881-13.806-22.261-26.878-18.96-38.86,3.31-12.039,16.3-22.511,38.592-31.117q6.705-2.6,13.335-4.49c39.723-11.39,76.847-4.159,105.686,20.915Zm-31.568,35.331c1.145-4.918-1.977-10.64-9.291-17L727.113,949.5c-12.876-11.192-27.288-14.578-42.918-10.1q-2.459.705-4.956,1.669c-17.535,6.778-19.219,16.482-5,28.85l109.732,95.41c7.319,6.363,15.228,10.234,23.5,11.515a45.237,45.237,0,0,0,19.485-1.439c1.62-.464,3.256-1.016,4.89-1.649,8.413-3.249,13.219-7.232,14.3-11.848" transform="translate(-7.63 -408.352)"/><path d="M902.5,1059.64l-1.55,101.5a25.175,25.175,0,0,1-.906,6.315c-3.543,12.859-17.235,23.979-40.718,33.046q-7.014,2.711-13.958,4.7c-18.633,5.343-36.862,6.811-54.36,4.363a109.656,109.656,0,0,1-57.643-26.337l1.55-101.5a109.669,109.669,0,0,0,57.644,26.336c17.5,2.448,35.727.98,54.36-4.363q6.942-1.99,13.957-4.7c23.484-9.067,37.176-20.188,40.719-33.047A25.168,25.168,0,0,0,902.5,1059.64Z" transform="translate(-7.63 -408.352)"/></g><g class="cls-2"><polygon points="980.247 430.32 978.697 531.823 825.374 398.505 826.925 297.002 980.247 430.32"/><polygon class="cls-5" points="941.952 447.659 940.401 549.162 785.046 414.082 786.597 312.579 941.952 447.659"/><polygon points="826.925 297.002 825.374 398.505 785.045 414.081 786.596 312.579 826.925 297.002"/><polygon points="937.817 449.257 936.266 550.76 778.102 413.238 779.653 311.736 937.817 449.257"/><polygon points="889.076 468.082 887.525 569.585 732.174 434.498 733.725 332.995 889.076 468.082"/><polygon class="cls-5" points="844.159 482.877 842.608 584.38 689.286 451.062 690.836 349.559 844.159 482.877"/><polygon points="733.725 332.995 732.174 434.498 689.286 451.062 690.836 349.559 733.725 332.995"/><path class="cls-5" d="M957.374,972.364q.107-6.62-9.343-14.85l1.551-101.5q9.452,8.219,9.343,14.851C958.46,901.313,957.839,941.914,957.374,972.364Z" transform="translate(-7.63 -408.352)"/><path d="M953.952,870.716l-1.551,101.5c.058-3.8-2.782-8.132-8.5-13.108l1.55-101.5C951.17,862.584,954.01,866.917,953.952,870.716Z" transform="translate(-7.63 -408.352)"/><path d="M1008.154,872.106l-1.55,101.5c.158-10.352-6.639-21.569-20.277-33.433l1.55-101.5C1001.516,850.537,1008.312,861.754,1008.154,872.106Z" transform="translate(-7.63 -408.352)"/><path d="M958.924,870.855l-1.55,101.5q-.124,8.13-14.633,13.754-2.539.98-5.044,1.7a45.231,45.231,0,0,1-19.159,1.518c-8.329-1.23-15.979-4.952-23.383-11.39l1.551-101.5c7.4,6.439,15.053,10.161,23.382,11.39a45.234,45.234,0,0,0,19.16-1.518q2.5-.717,5.044-1.7Q958.794,879.007,958.924,870.855Z" transform="translate(-7.63 -408.352)"/><polygon points="840.024 484.475 838.474 585.978 682.342 450.219 683.892 348.716 840.024 484.475"/><path class="cls-5" d="M904.224,1018.078c-19.866-2.941-38.031-11.467-53.986-25.346l1.551-101.5c15.954,13.88,34.119,22.4,53.985,25.347q4,.592,8.068.879l-1.551,101.5Q908.225,1018.672,904.224,1018.078Z" transform="translate(-7.63 -408.352)"/><path class="cls-5" d="M912.291,1018.958l1.551-101.5a122.4,122.4,0,0,0,42.446-4.844q6.567-1.883,13.232-4.457c22.185-8.566,34.953-18.95,37.951-30.851a22.636,22.636,0,0,0,.683-5.2l-1.55,101.5a22.737,22.737,0,0,1-.683,5.2c-3,11.9-15.766,22.286-37.952,30.851q-6.663,2.574-13.232,4.458A122.4,122.4,0,0,1,912.291,1018.958Z" transform="translate(-7.63 -408.352)"/><path d="M992.012,837.074c16.678,14.509,23.543,28.2,20.4,40.7-3.21,12.746-16.69,23.788-40.085,32.818q-6.934,2.678-13.793,4.644c-18.561,5.322-36.638,6.723-53.912,4.164a110.338,110.338,0,0,1-56.969-26.577L691.522,757.068l51.157-19.76L900.848,874.834c6.571,5.717,13.428,9.136,20.39,10.162a36.686,36.686,0,0,0,15.647-1.277q2.255-.647,4.6-1.552c15.212-5.876,16.476-13.68,3.965-24.558L787.283,720.087l48.6-18.767Zm15.459,40.23c2.953-11.759-3.639-24.753-19.594-38.632L834.555,705.354l-40.329,15.577,155.356,135.08c14.035,12.2,12.248,21.824-5.29,28.6q-2.541.98-5.044,1.7a45.234,45.234,0,0,1-19.16,1.518c-8.329-1.229-15.978-4.951-23.382-11.39L741.355,741.347l-42.889,16.564L851.788,891.229c15.955,13.88,34.12,22.4,53.986,25.347,16.084,2.385,33.027,1.05,50.514-3.964q6.567-1.884,13.232-4.458c22.185-8.565,34.952-18.949,37.951-30.85" transform="translate(-7.63 -408.352)"/><path class="cls-5" d="M834.555,705.354,987.878,838.672c15.954,13.88,22.546,26.873,19.593,38.632-3,11.9-15.766,22.285-37.951,30.851q-6.663,2.574-13.232,4.457c-17.486,5.014-34.429,6.349-50.514,3.964-19.866-2.942-38.031-11.467-53.985-25.347L698.466,757.911l42.889-16.564L896.706,876.434c7.4,6.439,15.054,10.161,23.382,11.39a45.218,45.218,0,0,0,19.16-1.518q2.5-.717,5.044-1.7c17.539-6.773,19.325-16.395,5.29-28.6L794.227,720.931Z" transform="translate(-7.63 -408.352)"/><path d="M1013.152,872.175l-1.551,101.5a24.444,24.444,0,0,1-.737,5.6c-3.211,12.746-16.69,23.788-40.086,32.818q-6.933,2.678-13.793,4.645c-18.561,5.322-36.637,6.723-53.911,4.163A110.339,110.339,0,0,1,846.1,994.33l1.551-101.5A110.338,110.338,0,0,0,904.624,919.4c17.274,2.559,35.351,1.158,53.912-4.164q6.846-1.963,13.793-4.644c23.4-9.03,36.875-20.072,40.085-32.818A24.447,24.447,0,0,0,1013.152,872.175Z" transform="translate(-7.63 -408.352)"/></g><g class="cls-2"><polygon points="1401.983 507.382 1400.432 608.885 1247.11 475.567 1248.66 374.064 1401.983 507.382"/><polygon class="cls-5" points="1363.699 524.724 1362.149 626.226 1206.781 491.144 1208.332 389.641 1363.699 524.724"/><polygon points="1248.66 374.064 1247.11 475.567 1206.781 491.144 1208.332 389.641 1248.66 374.064"/><polygon points="1359.553 526.319 1358.002 627.822 1199.838 490.3 1201.388 388.798 1359.553 526.319"/><polygon points="1310.819 545.142 1309.269 646.645 1153.914 511.565 1155.464 410.062 1310.819 545.142"/><polygon class="cls-5" points="1265.894 559.939 1264.344 661.442 1111.025 528.129 1112.576 426.626 1265.894 559.939"/><polygon points="1155.464 410.062 1153.914 511.565 1111.025 528.129 1112.575 426.626 1155.464 410.062"/><path class="cls-5" d="M1379.114,1049.426q.108-6.62-9.335-14.848l1.55-101.5q9.446,8.217,9.336,14.849C1380.2,978.374,1379.579,1018.975,1379.114,1049.426Z" transform="translate(-7.63 -408.352)"/><path d="M1375.691,947.781l-1.551,101.5c.058-3.8-2.784-8.132-8.508-13.109l1.551-101.5C1372.907,939.648,1375.749,943.981,1375.691,947.781Z" transform="translate(-7.63 -408.352)"/><path d="M1430.062,949.251l-1.551,101.5c.157-10.276-6.641-21.515-20.449-33.517l1.551-101.5C1423.421,927.737,1430.219,938.975,1430.062,949.251Z" transform="translate(-7.63 -408.352)"/><path d="M1380.665,947.915l-1.551,101.5q-.125,8.13-14.637,13.755c-1.678.652-3.354,1.215-5.014,1.691-15.586,4.469-29.882,1.162-42.564-9.867l1.55-101.5c12.682,11.029,26.979,14.336,42.564,9.867q2.492-.714,5.015-1.691Q1380.538,956.067,1380.665,947.915Z" transform="translate(-7.63 -408.352)"/><polygon points="1261.76 561.537 1260.209 663.04 1104.077 527.281 1105.628 425.778 1261.76 561.537"/><path class="cls-5" d="M1271.974,1069.794c.532-31.965,1.111-69.91,1.55-101.5a118.083,118.083,0,0,0,11.3,8.7q-.776,50.726-1.55,101.452.775-50.727,1.55-101.452c26.962,18.235,58.686,22.585,93.027,12.738q6.645-1.9,13.41-4.518c25.612-9.89,38.59-22.045,38.8-35.969l-1.55,101.5c-.209,13.923-13.187,26.079-38.8,35.969q-6.769,2.614-13.411,4.518C1337.036,1102.495,1301.192,1095.191,1271.974,1069.794Z" transform="translate(-7.63 -408.352)"/><path d="M1413.755,914.134c33.848,29.436,26.864,55.549-19.679,73.526q-6.891,2.657-13.708,4.614c-41.479,11.894-80.46,4.146-110.978-22.385L1113.258,834.13l51.161-19.755L1322.584,951.9c11.262,9.793,22.858,12.657,36.158,8.844q2.209-.635,4.484-1.513c15.211-5.876,16.467-13.678,3.957-24.556L1209.018,797.15l48.6-18.773Zm-22.492,71.08c44.511-17.188,50.864-41.217,18.35-69.48L1256.29,782.416l-40.328,15.577,155.367,135.082c14.023,12.2,12.245,21.82-5.3,28.595q-2.519.978-5.015,1.691c-15.585,4.469-29.882,1.162-42.564-9.867l-155.355-135.08-42.888,16.564,153.318,133.313c29.218,25.4,65.062,32.7,104.329,21.441q6.643-1.9,13.41-4.518" transform="translate(-7.63 -408.352)"/><path class="cls-5" d="M1256.291,782.416l153.322,133.318c32.514,28.263,26.161,52.292-18.35,69.48q-6.769,2.616-13.41,4.518c-39.267,11.26-75.111,3.957-104.329-21.441L1120.206,834.978l42.889-16.564,155.355,135.08c12.681,11.029,26.978,14.336,42.563,9.867q2.492-.714,5.015-1.691c17.546-6.775,19.325-16.394,5.3-28.595L1215.962,797.993Z" transform="translate(-7.63 -408.352)"/><path d="M1434.888,949.269l-1.551,101.5c-.228,14.9-13.913,28-40.811,38.392q-6.893,2.657-13.709,4.614c-41.478,11.894-80.46,4.146-110.978-22.385l1.551-101.5c30.518,26.531,69.5,34.279,110.978,22.385q6.81-1.953,13.708-4.614C1420.974,977.271,1434.66,964.164,1434.888,949.269Z" transform="translate(-7.63 -408.352)"/></g><g class="cls-2"><polygon points="1536.068 369.793 1534.518 471.295 1529.541 466.96 1531.092 365.457 1536.068 369.793"/><path d="M1382.316,893.59l1.551-101.5a22.46,22.46,0,0,1,.618-4.914c2.835-11.837,15.4-22.14,37.355-30.615q6.6-2.552,13.1-4.411c38.879-11.147,74.529-3.77,103.787,21.662l-1.551,101.5c-29.257-25.432-64.908-32.81-103.786-21.662q-6.492,1.86-13.1,4.41c-21.953,8.476-34.52,18.778-37.354,30.615A22.531,22.531,0,0,0,1382.316,893.59Z" transform="translate(-7.63 -408.352)"/><path class="cls-5" d="M1467.339,876.946q.776-50.751,1.55-101.5a39.7,39.7,0,0,1,4.464.5c8.029,1.369,15.551,5.187,23.011,11.668l-1.55,101.5c-7.461-6.481-14.983-10.3-23.011-11.667A39.7,39.7,0,0,0,1467.339,876.946Z" transform="translate(-7.63 -408.352)"/><path class="cls-5" d="M1433.922,892.085a8.766,8.766,0,0,0-.15,1.486l1.55-101.5a8.776,8.776,0,0,1,.15-1.486c.864-4.619,5.41-8.45,13.875-11.72q2.49-.963,4.915-1.658a43.71,43.71,0,0,1,14.627-1.76q-.775,50.751-1.55,101.5a43.737,43.737,0,0,0-14.627,1.761q-2.425.694-4.916,1.657C1439.332,883.634,1434.785,887.466,1433.922,892.085Z" transform="translate(-7.63 -408.352)"/><path d="M1438.77,893.658l1.551-101.5a7.025,7.025,0,0,1,.121-1.207c.693-3.716,4.531-6.873,11.714-9.645q2.2-.851,4.318-1.457a34.552,34.552,0,0,1,15.556-1.1c6.831,1.165,13.435,4.591,20.192,10.467l-1.551,101.5c-6.757-5.876-13.361-9.3-20.192-10.467a34.562,34.562,0,0,0-15.555,1.095q-2.121.609-4.319,1.457c-7.182,2.773-11.021,5.93-11.714,9.646A7.116,7.116,0,0,0,1438.77,893.658Z" transform="translate(-7.63 -408.352)"/><polygon class="cls-5" points="1536.068 369.793 1534.518 471.295 1494.197 486.87 1495.748 385.367 1536.068 369.793"/><polygon class="cls-5" points="1495.748 385.367 1494.197 486.87 1487.184 480.767 1488.734 379.265 1495.748 385.367"/><polygon points="1543.012 370.636 1541.461 472.139 1492.872 490.909 1494.423 389.406 1543.012 370.636"/><polygon points="1494.423 389.406 1492.872 490.909 1483.041 482.368 1484.592 380.865 1494.423 389.406"/><path d="M1665.262,899.043l-1.55,101.5c.157-10.276-6.642-21.515-20.45-33.517-30.786-26.773-72.753-30.759-113.343-34.611-34.184-3.249-66.458-6.315-86.27-23.537-6.7-5.824-9.946-10.848-9.878-15.3l1.551-101.5c-.068,4.457,3.182,9.481,9.877,15.306,19.813,17.221,52.087,20.287,86.271,23.536,40.589,3.852,82.557,7.839,113.343,34.611C1658.621,877.528,1665.419,888.767,1665.262,899.043Z" transform="translate(-7.63 -408.352)"/><path class="cls-5" d="M1402.8,927.212c-13.772-11.968-20.637-23.252-20.48-33.618l1.55-101.5c-.156,10.365,6.708,21.65,20.481,33.618,15.507,13.485,33.851,21.189,53.427,26.007l-1.551,101.5C1436.648,948.4,1418.3,940.7,1402.8,927.212Z" transform="translate(-7.63 -408.352)"/><path class="cls-5" d="M1456.224,953.22l1.551-101.5c19.288,4.747,39.772,6.692,59.916,8.6,12.818,1.218,25.371,2.411,37.1,4.335q-.775,50.753-1.55,101.5c-11.729-1.924-24.282-3.117-37.1-4.335C1496,959.911,1475.512,957.967,1456.224,953.22Z" transform="translate(-7.63 -408.352)"/><path class="cls-5" d="M1602.411,985.36c-12.38-10.762-29.632-16-49.17-19.2q.776-50.753,1.55-101.5c19.539,3.205,36.79,8.44,49.171,19.2,6.376,5.544,9.482,10.415,9.414,14.809l-1.551,101.5C1611.893,995.775,1608.788,990.9,1602.411,985.36Z" transform="translate(-7.63 -408.352)"/><path d="M1608.367,898.655l-1.55,101.5c.058-3.784-2.808-8.212-8.54-13.2-18.577-16.15-49.8-19.111-82.859-22.252-39.72-3.771-84.733-8.051-116.763-35.893-14.356-12.482-21.509-24.328-21.341-35.3l1.551-101.5c-.168,10.971,6.985,22.817,21.341,35.3,32.03,27.841,77.043,32.122,116.762,35.892,33.06,3.142,64.282,6.1,82.859,22.253C1605.56,890.443,1608.425,894.872,1608.367,898.655Z" transform="translate(-7.63 -408.352)"/><polygon points="1543.452 495.924 1541.901 597.426 1528.793 586.03 1530.344 484.528 1543.452 495.924"/><polygon points="1530.344 484.528 1528.793 586.03 1488.468 601.6 1490.019 500.098 1530.344 484.528"/><path d="M1613.376,898.665l-1.551,101.5a8.941,8.941,0,0,1-.277,2.081c-1.139,4.51-5.994,8.448-14.43,11.7q-2.532.976-5.02,1.69c-15.593,4.472-29.881,1.166-42.567-9.864l1.551-101.5c12.686,11.029,26.974,14.335,42.567,9.864q2.487-.714,5.019-1.691c8.437-3.256,13.292-7.193,14.43-11.7A8.957,8.957,0,0,0,1613.376,898.665Z" transform="translate(-7.63 -408.352)"/><polygon class="cls-5" points="1501.095 509.731 1499.544 611.234 1488.469 601.6 1490.019 500.097 1501.095 509.731"/><polygon points="1496.96 511.329 1495.409 612.832 1481.524 600.757 1483.075 499.254 1496.96 511.329"/><path class="cls-5" d="M1507.174,1019.586q.418-25.371.806-50.743c.378-24.934.522-35.041.745-50.76a117.906,117.906,0,0,0,11.293,8.7q-.776,50.727-1.55,101.455.775-50.727,1.55-101.455c26.966,18.239,58.7,22.59,93.037,12.743q6.645-1.9,13.408-4.517c25.612-9.89,38.59-22.045,38.8-35.968l-1.551,101.5c-.21,13.923-13.188,26.078-38.8,35.968q-6.768,2.614-13.408,4.517C1572.242,1052.284,1536.392,1044.983,1507.174,1019.586Z" transform="translate(-7.63 -408.352)"/><path class="cls-5" d="M1434.936,752.147c38.878-11.147,74.528-3.77,103.786,21.662l4.977,4.336-40.321,15.574-7.014-6.1c-7.46-6.481-14.982-10.3-23.011-11.668a42.315,42.315,0,0,0-19.091,1.255q-2.424.695-4.915,1.658c-8.465,3.27-13.011,7.1-13.875,11.72-.909,4.822,2.275,10.314,9.727,16.8,19.813,17.221,52.087,20.287,86.271,23.536,40.59,3.852,82.557,7.839,113.343,34.611,32.515,28.263,26.162,52.292-18.35,69.48q-6.768,2.615-13.408,4.517c-39.262,11.259-75.112,3.957-104.33-21.44l-11.076-9.634,40.325-15.569,13.108,11.4c12.686,11.029,26.974,14.335,42.567,9.864q2.487-.714,5.019-1.691c8.437-3.256,13.292-7.193,14.43-11.7,1.258-4.927-1.736-10.456-9.136-16.889-19.813-17.222-52.1-20.29-86.271-23.537-40.589-3.851-82.557-7.838-113.343-34.61-15.983-13.889-22.663-26.857-19.863-38.537,2.835-11.837,15.4-22.14,37.355-30.615Q1428.446,754.007,1434.936,752.147Z" transform="translate(-7.63 -408.352)"/><path d="M1670.088,899.061l-1.551,101.5c-.227,14.895-13.913,28-40.811,38.391q-6.892,2.658-13.708,4.615c-41.479,11.894-80.46,4.146-110.979-22.385l1.551-101.5c30.518,26.531,69.5,34.279,110.978,22.385q6.8-1.961,13.709-4.614C1656.175,927.063,1669.86,913.956,1670.088,899.061Z" transform="translate(-7.63 -408.352)"/><path d="M1648.955,863.926c33.848,29.436,26.864,55.549-19.678,73.526q-6.892,2.656-13.709,4.614c-41.478,11.894-80.46,4.146-110.978-22.385l-13.885-12.075,48.6-18.767,15.913,13.843c11.259,9.788,22.863,12.65,36.156,8.838q2.209-.633,4.483-1.512c7.331-2.833,11.354-6.019,12.3-9.736,1.046-4.118-1.758-9.1-8.328-14.817-18.577-16.15-49.8-19.111-82.859-22.253-39.719-3.77-84.732-8.051-116.762-35.892-16.695-14.516-23.649-28.171-20.676-40.59,3.042-12.686,16.334-23.656,39.5-32.6q6.734-2.6,13.408-4.514c41.086-11.781,79.865-3.953,110.417,22.608l7.786,6.777-48.589,18.77-9.831-8.541c-6.757-5.876-13.361-9.3-20.192-10.467a34.552,34.552,0,0,0-15.556,1.1q-2.12.607-4.318,1.457c-7.183,2.772-11.021,5.929-11.714,9.645-.776,4.106,2.134,8.957,8.891,14.833,18.573,16.145,49.8,19.111,82.86,22.252C1571.9,831.806,1616.921,836.08,1648.955,863.926Zm-22.492,71.08c44.511-17.188,50.865-41.217,18.35-69.48-30.786-26.772-72.754-30.759-113.343-34.611-34.184-3.249-66.458-6.315-86.271-23.536-7.453-6.484-10.636-11.975-9.727-16.8.863-4.619,5.41-8.451,13.875-11.72q2.49-.963,4.915-1.658a42.315,42.315,0,0,1,19.091-1.255c8.028,1.369,15.55,5.187,23.011,11.667l7.014,6.1,40.32-15.574-4.976-4.336c-29.258-25.432-64.908-32.809-103.787-21.662q-6.49,1.861-13.1,4.411c-21.953,8.475-34.52,18.778-37.355,30.615-2.8,11.68,3.88,24.648,19.862,38.537,30.787,26.772,72.754,30.759,113.344,34.61,34.171,3.247,66.458,6.315,86.271,23.537,7.4,6.433,10.394,11.962,9.136,16.889-1.138,4.51-5.993,8.447-14.43,11.7q-2.532.978-5.019,1.691c-15.593,4.471-29.881,1.165-42.567-9.864l-13.108-11.4-40.325,15.569,11.075,9.634c29.219,25.4,65.069,32.7,104.331,21.44q6.643-1.9,13.408-4.517" transform="translate(-7.63 -408.352)"/></g></svg>