<?xml version="1.0" encoding="UTF-8"?>
<svg id="Layer_1" xmlns="http://www.w3.org/2000/svg" viewBox="0 0 674.57 1080">
  <path d="M674.56,1080H0V283.41c-.56-72.79,25.23-137.56,74.58-187.31C136.06,34.13,229.35,0,337.29,0s201.66,33.99,262.89,95.71c49.22,49.62,74.95,114.52,74.39,187.7v796.59ZM61.55,1018.46h551.48V283.04c.46-56.46-19.1-106.25-56.54-144-49.58-49.98-127.43-77.51-219.2-77.51s-169.18,27.66-219,77.9c-37.57,37.88-57.19,87.54-56.73,143.61v.25s0,735.17,0,735.17Z"/>
  <rect x="182.26" y="895.38" width="430.77" height="123.08"/>
  <rect x="305.08" y="772.31" width="369.23" height="123.08"/>
  <rect x="436.36" y="649.23" width="238.21" height="123.08"/>
  <path d="M153.15,987.69h-61.54V278.05c0-30.15,7.92-58.3,23.54-83.67,14-22.73,33.79-42.57,58.83-58.97,44.25-28.99,103.59-45.64,162.81-45.67h.21c63.83,0,123.1,16.04,166.95,45.19,24.12,16.03,43.09,35.58,56.37,58.09,14.35,24.33,21.65,51.4,21.69,80.44,2,147.78,3.01,203.95,3.55,234.13q.6,33.17.68,87.53l.05,32.01-61.54.09-.05-32.01q-.08-53.86-.67-86.52c-.54-30.24-1.56-86.53-3.56-234.61,0-.14,0-.28,0-.42,0-17.98-4.42-34.59-13.15-49.38-8.52-14.44-21.11-27.26-37.43-38.11-33.86-22.51-81.05-34.9-132.88-34.9h-.18c-47.56.03-94.62,13-129.12,35.6-17.42,11.42-30.93,24.8-40.16,39.77-9.56,15.52-14.4,32.81-14.4,51.4v709.64Z"/>
  <rect x="306.28" y="130.36" width="61.54" height="608.27"/>
</svg>